<svg width="12" height="21" viewBox="0 0 12 21" fill="none" xmlns="http://www.w3.org/2000/svg">
<path d="M9.21628 10.0058L0.724279 1.27877C0.654363 1.20844 0.599089 1.12494 0.561655 1.03311C0.524221 0.941278 0.505369 0.842934 0.506193 0.743769C0.507017 0.644604 0.527499 0.546586 0.566454 0.455389C0.605409 0.364192 0.662062 0.281626 0.733137 0.212468C0.804212 0.143311 0.888296 0.0889353 0.980524 0.0524885C1.07275 0.0160418 1.17129 -0.00175267 1.27044 0.00013505C1.3696 0.00202277 1.46739 0.0235552 1.55816 0.0634861C1.64893 0.103417 1.73089 0.160954 1.79928 0.232766L10.7993 9.48277C10.9355 9.62278 11.0117 9.81042 11.0117 10.0058C11.0117 10.2011 10.9355 10.3888 10.7993 10.5288L1.79928 19.7788C1.73089 19.8506 1.64893 19.9081 1.55816 19.948C1.46739 19.988 1.36959 20.0095 1.27044 20.0114C1.17129 20.0133 1.07275 19.9955 0.980522 19.959C0.888294 19.9226 0.80421 19.8682 0.733135 19.7991C0.662061 19.7299 0.605407 19.6473 0.566452 19.5561C0.527498 19.4649 0.507015 19.3669 0.506191 19.2678C0.505368 19.1686 0.524219 19.0703 0.561653 18.9784C0.599088 18.8866 0.654362 18.8031 0.724278 18.7328L9.21628 10.0058Z" fill="white"/>
</svg>
