<svg width="11" height="21" viewBox="0 0 11 21" fill="none" xmlns="http://www.w3.org/2000/svg">
<path d="M1.79544 10.006L10.2874 18.733C10.3574 18.8033 10.4126 18.8868 10.4501 18.9786C10.4875 19.0704 10.5063 19.1688 10.5055 19.2679C10.5047 19.3671 10.4842 19.4651 10.4453 19.5563C10.4063 19.6475 10.3497 19.7301 10.2786 19.7992C10.2075 19.8684 10.1234 19.9228 10.0312 19.9592C9.93897 19.9957 9.84042 20.0135 9.74127 20.0116C9.64212 20.0097 9.54433 19.9882 9.45356 19.9482C9.36278 19.9083 9.28083 19.8508 9.21244 19.779L0.21244 10.529C0.0762178 10.3889 0 10.2013 0 10.006C0 9.8106 0.0762178 9.62297 0.21244 9.48295L9.21244 0.23295C9.28083 0.161137 9.36278 0.103602 9.45356 0.0636711C9.54433 0.0237402 9.64212 0.00220815 9.74127 0.000320435C9.84042 -0.00156728 9.93897 0.0162266 10.0312 0.0526733C10.1234 0.0891201 10.2075 0.143495 10.2786 0.212652C10.3497 0.28181 10.4063 0.364377 10.4453 0.455574C10.4842 0.546771 10.5047 0.644789 10.5055 0.743954C10.5063 0.843119 10.4875 0.941463 10.4501 1.03329C10.4126 1.12513 10.3574 1.20862 10.2874 1.27895L1.79544 10.006Z" fill="white"/>
</svg>
