<svg width="32" height="32" viewBox="0 0 32 32" fill="none" xmlns="http://www.w3.org/2000/svg">
<circle cx="16" cy="16" r="16" fill="url(#paint0_linear_235_75)"/>
<path d="M22.3564 10.1671C21.1933 9.62485 19.934 9.23132 18.6222 9.00395C18.6107 9.00358 18.5993 9.00574 18.5887 9.01027C18.5782 9.0148 18.5687 9.0216 18.561 9.03018C18.4036 9.31877 18.22 9.69482 18.0975 9.98341C16.7062 9.77352 15.2912 9.77352 13.8999 9.98341C13.7774 9.68607 13.5938 9.31877 13.4276 9.03018C13.4189 9.01269 13.3926 9.00395 13.3664 9.00395C12.0546 9.23132 10.8041 9.62485 9.63221 10.1671C9.62347 10.1671 9.61472 10.1758 9.60598 10.1845C7.22729 13.7438 6.5714 17.2069 6.89497 20.635C6.89497 20.6525 6.90372 20.67 6.92121 20.6788C8.49534 21.8331 10.0083 22.5327 11.5037 22.9962C11.5299 23.005 11.5561 22.9962 11.5649 22.9787C11.9147 22.4977 12.2295 21.9905 12.5006 21.4571C12.5181 21.4221 12.5006 21.3871 12.4656 21.3784C11.9672 21.186 11.4949 20.9586 11.0314 20.6962C10.9965 20.6788 10.9965 20.6263 11.0227 20.6C11.1189 20.5301 11.2151 20.4514 11.3113 20.3814C11.3288 20.3639 11.355 20.3639 11.3725 20.3727C14.3808 21.7457 17.6253 21.7457 20.5987 20.3727C20.6161 20.3639 20.6424 20.3639 20.6599 20.3814C20.7561 20.4601 20.8523 20.5301 20.9485 20.6088C20.9834 20.635 20.9834 20.6875 20.9397 20.705C20.485 20.9761 20.004 21.1947 19.5055 21.3871C19.4705 21.3959 19.4618 21.4396 19.4705 21.4658C19.7504 21.9993 20.0652 22.5065 20.4063 22.9875C20.4325 22.9962 20.4587 23.005 20.485 22.9962C21.9891 22.5327 23.5021 21.8331 25.0762 20.6788C25.0937 20.67 25.1024 20.6525 25.1024 20.635C25.4872 16.6735 24.464 13.2366 22.3914 10.1845C22.3827 10.1758 22.3739 10.1671 22.3564 10.1671ZM12.9554 18.5449C12.0546 18.5449 11.3025 17.7141 11.3025 16.691C11.3025 15.6678 12.0371 14.837 12.9554 14.837C13.8824 14.837 14.617 15.6765 14.6082 16.691C14.6082 17.7141 13.8736 18.5449 12.9554 18.5449ZM19.0508 18.5449C18.15 18.5449 17.3979 17.7141 17.3979 16.691C17.3979 15.6678 18.1325 14.837 19.0508 14.837C19.9777 14.837 20.7123 15.6765 20.7036 16.691C20.7036 17.7141 19.9777 18.5449 19.0508 18.5449Z" fill="white"/>
<defs>

</defs>
</svg>
