<svg width="32" height="32" viewBox="0 0 32 32" fill="none" xmlns="http://www.w3.org/2000/svg">
<circle cx="16" cy="16" r="16" fill="url(#paint0_linear_235_78)"/>
<path d="M16.4628 8C15.3514 8 14.251 8.2189 13.2242 8.64419C12.1975 9.06948 11.2645 9.69284 10.4787 10.4787C8.89161 12.0658 8 14.2183 8 16.4628C8 20.2033 10.4288 23.3768 13.7885 24.5024C14.2117 24.5701 14.3471 24.3077 14.3471 24.0792V22.649C12.0029 23.1568 11.5036 21.515 11.5036 21.515C11.1143 20.5333 10.5642 20.271 10.5642 20.271C9.79411 19.7463 10.6235 19.7632 10.6235 19.7632C11.4697 19.8225 11.9183 20.6349 11.9183 20.6349C12.6545 21.9212 13.8985 21.5404 14.3809 21.3373C14.4571 20.7872 14.6771 20.4149 14.9141 20.2033C13.0353 19.9917 11.0635 19.2639 11.0635 16.0396C11.0635 15.1003 11.3851 14.3471 11.9352 13.7462C11.8506 13.5346 11.5544 12.6545 12.0198 11.512C12.0198 11.512 12.7307 11.2836 14.3471 12.3752C15.0156 12.1891 15.7434 12.096 16.4628 12.096C17.1821 12.096 17.9099 12.1891 18.5785 12.3752C20.1948 11.2836 20.9057 11.512 20.9057 11.512C21.3712 12.6545 21.075 13.5346 20.9903 13.7462C21.5404 14.3471 21.862 15.1003 21.862 16.0396C21.862 19.2724 19.8817 19.9833 17.9945 20.1948C18.2992 20.4572 18.5785 20.9734 18.5785 21.7604V24.0792C18.5785 24.3077 18.7139 24.5785 19.1455 24.5024C22.5052 23.3684 24.9255 20.2033 24.9255 16.4628C24.9255 15.3514 24.7066 14.251 24.2813 13.2242C23.856 12.1975 23.2327 11.2645 22.4468 10.4787C21.661 9.69284 20.7281 9.06948 19.7013 8.64419C18.6746 8.2189 17.5741 8 16.4628 8Z" fill="white"/>
<defs>

</defs>
</svg>
