<svg width="32" height="32" viewBox="0 0 32 32" fill="none" xmlns="http://www.w3.org/2000/svg">
<circle cx="16" cy="16" r="16" fill="url(#paint0_linear_235_69)"/>
<path d="M11.6601 10.2303C11.6599 10.6298 11.5011 11.0127 11.2185 11.295C10.9359 11.5773 10.5528 11.7358 10.1534 11.7356C9.754 11.7354 9.37103 11.5765 9.08875 11.2939C8.80647 11.0114 8.64799 10.6282 8.64819 10.2288C8.64839 9.82944 8.80725 9.44647 9.08981 9.16419C9.37238 8.8819 9.7555 8.72343 10.1549 8.72363C10.5543 8.72383 10.9373 8.88269 11.2196 9.16525C11.5018 9.44782 11.6603 9.83094 11.6601 10.2303ZM11.7053 12.8507H8.69337V22.278H11.7053V12.8507ZM16.4641 12.8507H13.4673V22.278H16.434V17.331C16.434 14.575 20.0257 14.319 20.0257 17.331V22.278H23V16.3069C23 11.661 17.684 11.8342 16.434 14.1157L16.4641 12.8507Z" fill="white"/>
<defs>

</defs>
</svg>
