<svg width="32" height="32" viewBox="0 0 32 32" fill="none" xmlns="http://www.w3.org/2000/svg">
<circle cx="16" cy="16" r="16" fill="url(#paint0_linear_235_81)"/>
<path d="M18.064 10.3568C18.2656 11.2112 19.0327 11.8476 19.9488 11.8476C21.0182 11.8476 21.8852 10.9806 21.8852 9.91109C21.8852 8.84162 21.0182 7.97461 19.9488 7.97461C19.0137 7.97461 18.2338 8.63735 18.0522 9.51889C16.4862 9.68684 15.2633 11.0151 15.2633 12.6247V12.6347C13.5601 12.7064 12.0049 13.1912 10.7702 13.9565C10.3118 13.6016 9.73617 13.39 9.11156 13.39C7.61267 13.39 6.39795 14.6048 6.39795 16.1036C6.39795 17.1913 7.03709 18.1282 7.96039 18.5612C8.05026 21.7115 11.4829 24.2454 15.7054 24.2454C19.9279 24.2454 23.3651 21.7088 23.4504 18.5558C24.3664 18.12 25.0001 17.1858 25.0001 16.1045C25.0001 14.6057 23.7854 13.3909 22.2865 13.3909C21.6646 13.3909 21.0918 13.6007 20.6342 13.9529C19.3886 13.1821 17.8162 12.6973 16.0958 12.6329V12.6256C16.0958 11.4726 16.9528 10.5157 18.064 10.3587V10.3568ZM10.6613 17.8259C10.7067 16.8417 11.3603 16.0864 12.1202 16.0864C12.8801 16.0864 13.4611 16.8844 13.4158 17.8685C13.3704 18.8527 12.8029 19.2104 12.0422 19.2104C11.2814 19.2104 10.6159 18.81 10.6613 17.8259ZM19.2915 16.0864C20.0523 16.0864 20.7059 16.8417 20.7504 17.8259C20.7958 18.81 20.1294 19.2104 19.3695 19.2104C18.6097 19.2104 18.0413 18.8536 17.9959 17.8685C17.9505 16.8844 18.5307 16.0864 19.2915 16.0864ZM18.3872 20.1028C18.5298 20.1173 18.6205 20.2653 18.5652 20.3978C18.0976 21.5154 16.9937 22.3007 15.7054 22.3007C14.4171 22.3007 13.3141 21.5154 12.8456 20.3978C12.7902 20.2653 12.881 20.1173 13.0236 20.1028C13.8588 20.0184 14.7621 19.9721 15.7054 19.9721C16.6487 19.9721 17.5511 20.0184 18.3872 20.1028Z" fill="white"/>
<defs>

</defs>
</svg>
