<svg width="32" height="32" viewBox="0 0 32 32" fill="none" xmlns="http://www.w3.org/2000/svg">
<circle cx="16" cy="16" r="16" fill="url(#paint0_linear_235_72)"/>
<path fill-rule="evenodd" clip-rule="evenodd" d="M21.3427 9.52076C21.5394 9.43796 21.7547 9.4094 21.9662 9.43806C22.1777 9.46672 22.3777 9.55154 22.5453 9.6837C22.7129 9.81586 22.842 9.99053 22.9192 10.1895C22.9964 10.3885 23.0188 10.6046 22.9842 10.8152L21.1787 21.7667C21.0035 22.8231 19.8445 23.4289 18.8757 22.9027C18.0653 22.4624 16.8616 21.7842 15.779 21.0765C15.2376 20.7222 13.5794 19.5878 13.7832 18.7806C13.9583 18.0904 16.7446 15.4968 18.3367 13.9549C18.9616 13.349 18.6766 12.9996 17.9387 13.5568C16.1061 14.9404 13.1639 17.0444 12.1911 17.6367C11.3329 18.1589 10.8855 18.2481 10.3506 18.1589C9.37458 17.9965 8.46945 17.7449 7.7307 17.4385C6.73243 17.0245 6.78099 15.6521 7.72991 15.2524L21.3427 9.52076Z" fill="white"/>
<defs>

</defs>
</svg>
